<mxfile host="Electron" agent="Mozilla/5.0 (Windows NT 10.0; Win64; x64) AppleWebKit/537.36 (KHTML, like Gecko) draw.io/24.7.17 Chrome/128.0.6613.36 Electron/32.0.1 Safari/537.36" version="24.7.17">
  <diagram name="Page-1" id="KZN-zyBD-0XipZeYQRDT">
    <mxGraphModel dx="564" dy="324" grid="1" gridSize="10" guides="1" tooltips="1" connect="1" arrows="1" fold="1" page="1" pageScale="1" pageWidth="500" pageHeight="200" math="0" shadow="0">
      <root>
        <mxCell id="0" />
        <mxCell id="1" parent="0" />
        <mxCell id="yyGTJ8SKnHVZ-51QReyp-6704" value="" style="group" parent="1" vertex="1" connectable="0">
          <mxGeometry x="9" y="56" width="482.6" height="88.9" as="geometry" />
        </mxCell>
        <mxCell id="9eh16xiQdjSHdPkHuFP6-378" value="" style="rounded=0;whiteSpace=wrap;html=1;strokeColor=#aaaaaa;fillColor=#bfbfbf;strokeWidth=1;container=0;part=1;movable=1;resizable=1;rotatable=1;deletable=1;editable=1;locked=0;connectable=1;" parent="yyGTJ8SKnHVZ-51QReyp-6704" vertex="1">
          <mxGeometry width="482.6" height="88.9" as="geometry" />
        </mxCell>
        <mxCell id="9eh16xiQdjSHdPkHuFP6-379" value="" style="rounded=0;whiteSpace=wrap;html=1;strokeColor=#aaaaaa;fillColor=#000000;strokeWidth=1;movable=1;resizable=1;rotatable=1;deletable=1;editable=1;locked=0;connectable=1;container=0;" parent="yyGTJ8SKnHVZ-51QReyp-6704" vertex="1">
          <mxGeometry x="18" width="446.6" height="88.9" as="geometry" />
        </mxCell>
        <mxCell id="yyGTJ8SKnHVZ-51QReyp-1" value="" style="group" parent="yyGTJ8SKnHVZ-51QReyp-6704" vertex="1" connectable="0">
          <mxGeometry x="4" y="5.95000000000001" width="14.000000000000025" height="77" as="geometry" />
        </mxCell>
        <mxCell id="jP2WbbBxQBNUkDRbYnSl-226" value="" style="group" parent="yyGTJ8SKnHVZ-51QReyp-1" vertex="1" connectable="0">
          <mxGeometry x="0.003750000000025011" y="60.95000000000001" width="10" height="6" as="geometry" />
        </mxCell>
        <mxCell id="jP2WbbBxQBNUkDRbYnSl-227" value="" style="rounded=0;whiteSpace=wrap;html=1;fillColor=#000000;fontColor=#ffffff;strokeColor=none;container=0;" parent="jP2WbbBxQBNUkDRbYnSl-226" vertex="1">
          <mxGeometry x="3" width="4" height="6" as="geometry" />
        </mxCell>
        <mxCell id="jP2WbbBxQBNUkDRbYnSl-228" value="" style="ellipse;whiteSpace=wrap;html=1;aspect=fixed;strokeColor=none;fillColor=#000000;" parent="jP2WbbBxQBNUkDRbYnSl-226" vertex="1">
          <mxGeometry x="4" width="6" height="6" as="geometry" />
        </mxCell>
        <mxCell id="jP2WbbBxQBNUkDRbYnSl-229" value="" style="ellipse;whiteSpace=wrap;html=1;aspect=fixed;strokeColor=none;fillColor=#000000;" parent="jP2WbbBxQBNUkDRbYnSl-226" vertex="1">
          <mxGeometry width="6" height="6" as="geometry" />
        </mxCell>
        <mxCell id="jP2WbbBxQBNUkDRbYnSl-230" value="" style="group" parent="yyGTJ8SKnHVZ-51QReyp-1" vertex="1" connectable="0">
          <mxGeometry y="10.04999999999999" width="10" height="6" as="geometry" />
        </mxCell>
        <mxCell id="jP2WbbBxQBNUkDRbYnSl-231" value="" style="rounded=0;whiteSpace=wrap;html=1;fillColor=#000000;fontColor=#ffffff;strokeColor=none;container=0;" parent="jP2WbbBxQBNUkDRbYnSl-230" vertex="1">
          <mxGeometry x="3" width="4" height="6" as="geometry" />
        </mxCell>
        <mxCell id="jP2WbbBxQBNUkDRbYnSl-232" value="" style="ellipse;whiteSpace=wrap;html=1;aspect=fixed;strokeColor=none;fillColor=#000000;" parent="jP2WbbBxQBNUkDRbYnSl-230" vertex="1">
          <mxGeometry x="4" width="6" height="6" as="geometry" />
        </mxCell>
        <mxCell id="jP2WbbBxQBNUkDRbYnSl-233" value="" style="ellipse;whiteSpace=wrap;html=1;aspect=fixed;strokeColor=none;fillColor=#000000;" parent="jP2WbbBxQBNUkDRbYnSl-230" vertex="1">
          <mxGeometry width="6" height="6" as="geometry" />
        </mxCell>
        <mxCell id="jP2WbbBxQBNUkDRbYnSl-206" value="" style="rounded=0;whiteSpace=wrap;html=1;strokeColor=#aaaaaa;fillColor=#bfbfbf;strokeWidth=1;movable=1;resizable=1;rotatable=1;deletable=1;editable=1;locked=0;connectable=1;container=0;" parent="yyGTJ8SKnHVZ-51QReyp-1" vertex="1">
          <mxGeometry x="4.000000000000025" width="10" height="77" as="geometry" />
        </mxCell>
        <mxCell id="yyGTJ8SKnHVZ-51QReyp-3" value="" style="group" parent="yyGTJ8SKnHVZ-51QReyp-6704" vertex="1" connectable="0">
          <mxGeometry x="468.59625" y="16" width="10" height="6" as="geometry" />
        </mxCell>
        <mxCell id="yyGTJ8SKnHVZ-51QReyp-4" value="" style="rounded=0;whiteSpace=wrap;html=1;fillColor=#000000;fontColor=#ffffff;strokeColor=none;container=0;" parent="yyGTJ8SKnHVZ-51QReyp-3" vertex="1">
          <mxGeometry x="3" width="4" height="6" as="geometry" />
        </mxCell>
        <mxCell id="yyGTJ8SKnHVZ-51QReyp-5" value="" style="ellipse;whiteSpace=wrap;html=1;aspect=fixed;strokeColor=none;fillColor=#000000;" parent="yyGTJ8SKnHVZ-51QReyp-3" vertex="1">
          <mxGeometry x="4" width="6" height="6" as="geometry" />
        </mxCell>
        <mxCell id="yyGTJ8SKnHVZ-51QReyp-6" value="" style="ellipse;whiteSpace=wrap;html=1;aspect=fixed;strokeColor=none;fillColor=#000000;" parent="yyGTJ8SKnHVZ-51QReyp-3" vertex="1">
          <mxGeometry width="6" height="6" as="geometry" />
        </mxCell>
        <mxCell id="yyGTJ8SKnHVZ-51QReyp-7" value="" style="group" parent="yyGTJ8SKnHVZ-51QReyp-6704" vertex="1" connectable="0">
          <mxGeometry x="468.6" y="66.90000000000002" width="10" height="6" as="geometry" />
        </mxCell>
        <mxCell id="yyGTJ8SKnHVZ-51QReyp-8" value="" style="rounded=0;whiteSpace=wrap;html=1;fillColor=#000000;fontColor=#ffffff;strokeColor=none;container=0;" parent="yyGTJ8SKnHVZ-51QReyp-7" vertex="1">
          <mxGeometry x="3" width="4" height="6" as="geometry" />
        </mxCell>
        <mxCell id="yyGTJ8SKnHVZ-51QReyp-9" value="" style="ellipse;whiteSpace=wrap;html=1;aspect=fixed;strokeColor=none;fillColor=#000000;" parent="yyGTJ8SKnHVZ-51QReyp-7" vertex="1">
          <mxGeometry x="4" width="6" height="6" as="geometry" />
        </mxCell>
        <mxCell id="yyGTJ8SKnHVZ-51QReyp-10" value="" style="ellipse;whiteSpace=wrap;html=1;aspect=fixed;strokeColor=none;fillColor=#000000;" parent="yyGTJ8SKnHVZ-51QReyp-7" vertex="1">
          <mxGeometry width="6" height="6" as="geometry" />
        </mxCell>
        <mxCell id="yyGTJ8SKnHVZ-51QReyp-11" value="" style="rounded=0;whiteSpace=wrap;html=1;strokeColor=#aaaaaa;fillColor=#bfbfbf;strokeWidth=1;movable=1;resizable=1;rotatable=1;deletable=1;editable=1;locked=0;connectable=1;container=0;" parent="yyGTJ8SKnHVZ-51QReyp-6704" vertex="1">
          <mxGeometry x="464.6" y="5.95000000000001" width="10" height="77" as="geometry" />
        </mxCell>
        <mxCell id="yyGTJ8SKnHVZ-51QReyp-14" value="" style="rounded=0;whiteSpace=wrap;html=1;strokeColor=#aaaaaa;fillColor=#111111;strokeWidth=1;movable=1;resizable=1;rotatable=1;deletable=1;editable=1;locked=0;connectable=1;container=0;gradientColor=none;gradientDirection=radial;glass=0;shadow=0;" parent="yyGTJ8SKnHVZ-51QReyp-6704" vertex="1">
          <mxGeometry x="18" y="30" width="446.6" height="58.82" as="geometry" />
        </mxCell>
        <mxCell id="yyGTJ8SKnHVZ-51QReyp-6701" value="" style="rounded=1;whiteSpace=wrap;html=1;strokeColor=#1C1C1C;fillColor=#111111;strokeWidth=1;movable=1;resizable=1;rotatable=1;deletable=1;editable=1;locked=0;connectable=1;container=0;gradientColor=none;gradientDirection=radial;shadow=1;" parent="yyGTJ8SKnHVZ-51QReyp-6704" vertex="1">
          <mxGeometry x="38" y="43.41000000000001" width="406.6" height="27" as="geometry" />
        </mxCell>
        <mxCell id="yyGTJ8SKnHVZ-51QReyp-6703" value="" style="group" parent="yyGTJ8SKnHVZ-51QReyp-6704" vertex="1" connectable="0">
          <mxGeometry x="199.3" y="71.77000000000001" width="84" height="16" as="geometry" />
        </mxCell>
        <mxCell id="jP2WbbBxQBNUkDRbYnSl-595" value="" style="rounded=0;whiteSpace=wrap;html=1;strokeColor=#000000;fillColor=#222222;strokeWidth=0.2;container=0;movable=1;resizable=1;rotatable=1;deletable=1;editable=1;locked=0;connectable=1;" parent="yyGTJ8SKnHVZ-51QReyp-6703" vertex="1">
          <mxGeometry width="84" height="16" as="geometry" />
        </mxCell>
        <mxCell id="jP2WbbBxQBNUkDRbYnSl-596" value="" style="rounded=0;whiteSpace=wrap;html=1;strokeColor=#001DBC;fillColor=#222222;strokeWidth=0.2;container=0;fontColor=#ffffff;movable=1;resizable=1;rotatable=1;deletable=1;editable=1;locked=0;connectable=1;" parent="yyGTJ8SKnHVZ-51QReyp-6703" vertex="1">
          <mxGeometry x="1.5" y="1.3473913043478092" width="81" height="13.304347826086957" as="geometry" />
        </mxCell>
        <mxCell id="jP2WbbBxQBNUkDRbYnSl-597" value="" style="ellipse;whiteSpace=wrap;html=1;strokeColor=none;fillColor=#60a917;fontColor=#ffffff;movable=1;resizable=1;rotatable=1;deletable=1;editable=1;locked=0;connectable=1;container=0;" parent="yyGTJ8SKnHVZ-51QReyp-6703" vertex="1">
          <mxGeometry x="18" y="8.738695652173902" width="4.5" height="4.434782608695652" as="geometry" />
        </mxCell>
        <mxCell id="jP2WbbBxQBNUkDRbYnSl-598" value="" style="ellipse;whiteSpace=wrap;html=1;strokeColor=none;fillColor=#0050ef;fontColor=#ffffff;movable=1;resizable=1;rotatable=1;deletable=1;editable=1;locked=0;connectable=1;container=0;" parent="yyGTJ8SKnHVZ-51QReyp-6703" vertex="1">
          <mxGeometry x="23.24999999999997" y="8.738695652173902" width="4.5" height="4.434782608695652" as="geometry" />
        </mxCell>
        <mxCell id="jP2WbbBxQBNUkDRbYnSl-599" value="" style="ellipse;whiteSpace=wrap;html=1;strokeColor=none;fillColor=#0050ef;fontColor=#ffffff;movable=1;resizable=1;rotatable=1;deletable=1;editable=1;locked=0;connectable=1;container=0;" parent="yyGTJ8SKnHVZ-51QReyp-6703" vertex="1">
          <mxGeometry x="28.49999999999997" y="8.738695652173902" width="4.5" height="4.434782608695652" as="geometry" />
        </mxCell>
        <mxCell id="jP2WbbBxQBNUkDRbYnSl-600" value="" style="ellipse;whiteSpace=wrap;html=1;strokeColor=none;fillColor=#0050ef;fontColor=#ffffff;movable=1;resizable=1;rotatable=1;deletable=1;editable=1;locked=0;connectable=1;container=0;" parent="yyGTJ8SKnHVZ-51QReyp-6703" vertex="1">
          <mxGeometry x="33.75" y="8.738695652173902" width="4.5" height="4.434782608695652" as="geometry" />
        </mxCell>
        <mxCell id="jP2WbbBxQBNUkDRbYnSl-601" value="" style="ellipse;whiteSpace=wrap;html=1;strokeColor=none;fillColor=#a20025;fontColor=#ffffff;movable=1;resizable=1;rotatable=1;deletable=1;editable=1;locked=0;connectable=1;container=0;" parent="yyGTJ8SKnHVZ-51QReyp-6703" vertex="1">
          <mxGeometry x="44.25" y="8.738695652173902" width="4.5" height="4.434782608695652" as="geometry" />
        </mxCell>
        <mxCell id="jP2WbbBxQBNUkDRbYnSl-602" value="" style="ellipse;whiteSpace=wrap;html=1;strokeColor=none;fillColor=#0050ef;fontColor=#ffffff;movable=1;resizable=1;rotatable=1;deletable=1;editable=1;locked=0;connectable=1;container=0;" parent="yyGTJ8SKnHVZ-51QReyp-6703" vertex="1">
          <mxGeometry x="39" y="8.738695652173902" width="4.5" height="4.434782608695652" as="geometry" />
        </mxCell>
        <mxCell id="jP2WbbBxQBNUkDRbYnSl-603" value="" style="ellipse;whiteSpace=wrap;html=1;strokeColor=none;fillColor=#0050ef;fontColor=#ffffff;movable=1;resizable=1;rotatable=1;deletable=1;editable=1;locked=0;connectable=1;container=0;" parent="yyGTJ8SKnHVZ-51QReyp-6703" vertex="1">
          <mxGeometry x="10.5" y="7.260434782608684" width="6" height="5.913043478260869" as="geometry" />
        </mxCell>
        <mxCell id="jP2WbbBxQBNUkDRbYnSl-604" value="" style="ellipse;whiteSpace=wrap;html=1;strokeColor=none;fillColor=#0050ef;fontColor=#ffffff;movable=1;resizable=1;rotatable=1;deletable=1;editable=1;locked=0;connectable=1;container=0;" parent="yyGTJ8SKnHVZ-51QReyp-6703" vertex="1">
          <mxGeometry x="2.9999999999999716" y="7.260434782608684" width="6" height="5.913043478260869" as="geometry" />
        </mxCell>
        <mxCell id="jP2WbbBxQBNUkDRbYnSl-605" value="" style="sketch=0;pointerEvents=1;shadow=0;dashed=0;html=1;strokeColor=none;labelPosition=center;verticalLabelPosition=bottom;verticalAlign=top;align=center;fillColor=#FFFFFF;shape=mxgraph.mscae.enterprise.usb;movable=1;resizable=1;rotatable=1;deletable=1;editable=1;locked=0;connectable=1;container=0;" parent="yyGTJ8SKnHVZ-51QReyp-6703" vertex="1">
          <mxGeometry x="54.29999999999973" y="2.825652173913028" width="6.51" height="2.9565217391304346" as="geometry" />
        </mxCell>
        <mxCell id="jP2WbbBxQBNUkDRbYnSl-606" value="" style="sketch=0;pointerEvents=1;shadow=0;dashed=0;html=1;strokeColor=none;labelPosition=center;verticalLabelPosition=bottom;verticalAlign=top;align=center;fillColor=#FFFFFF;shape=mxgraph.mscae.enterprise.usb;movable=1;resizable=1;rotatable=1;deletable=1;editable=1;locked=0;connectable=1;container=0;" parent="yyGTJ8SKnHVZ-51QReyp-6703" vertex="1">
          <mxGeometry x="70.25999999999948" y="2.825652173913028" width="6.51" height="2.9565217391304346" as="geometry" />
        </mxCell>
        <mxCell id="jP2WbbBxQBNUkDRbYnSl-607" value="" style="sketch=0;html=1;strokeColor=none;shadow=0;fillColor=#FFFFFF;verticalAlign=top;labelPosition=center;verticalLabelPosition=bottom;shape=mxgraph.gcp2.a7_power;gradientColor=none;movable=1;resizable=1;rotatable=1;deletable=1;editable=1;locked=0;connectable=1;container=0;" parent="yyGTJ8SKnHVZ-51QReyp-6703" vertex="1">
          <mxGeometry x="4.5" y="2.825652173913028" width="3" height="2.9565217391304346" as="geometry" />
        </mxCell>
        <mxCell id="jP2WbbBxQBNUkDRbYnSl-608" value="" style="verticalLabelPosition=bottom;shadow=0;dashed=0;align=center;html=1;verticalAlign=top;shape=mxgraph.electrical.radio.loop_antenna;strokeColor=default;fillColor=none;strokeWidth=0.1;rotation=-180;movable=1;resizable=1;rotatable=1;deletable=1;editable=1;locked=0;connectable=1;container=0;" parent="yyGTJ8SKnHVZ-51QReyp-6703" vertex="1">
          <mxGeometry x="12.000000000000682" y="2.825652173913028" width="3" height="2.9565217391304346" as="geometry" />
        </mxCell>
        <mxCell id="jP2WbbBxQBNUkDRbYnSl-609" value="" style="strokeWidth=0.1;html=1;shape=mxgraph.flowchart.database;whiteSpace=wrap;strokeColor=default;fillColor=none;movable=1;resizable=1;rotatable=1;deletable=1;editable=1;locked=0;connectable=1;container=0;" parent="yyGTJ8SKnHVZ-51QReyp-6703" vertex="1">
          <mxGeometry x="24" y="2.825652173913028" width="3" height="2.9565217391304346" as="geometry" />
        </mxCell>
        <mxCell id="jP2WbbBxQBNUkDRbYnSl-610" value="" style="sketch=0;pointerEvents=1;shadow=0;dashed=0;html=1;strokeColor=none;fillColor=#FFFFFF;labelPosition=center;verticalLabelPosition=bottom;verticalAlign=top;align=center;outlineConnect=0;shape=mxgraph.vvd.infrastructure;movable=1;resizable=1;rotatable=1;deletable=1;editable=1;locked=0;connectable=1;container=0;" parent="yyGTJ8SKnHVZ-51QReyp-6703" vertex="1">
          <mxGeometry x="29.24999999999997" y="2.825652173913028" width="3" height="2.9565217391304346" as="geometry" />
        </mxCell>
        <mxCell id="jP2WbbBxQBNUkDRbYnSl-611" value="" style="sketch=0;pointerEvents=1;shadow=0;dashed=0;html=1;strokeColor=none;fillColor=#FFFFFF;labelPosition=center;verticalLabelPosition=bottom;verticalAlign=top;align=center;outlineConnect=0;shape=mxgraph.vvd.infrastructure;movable=1;resizable=1;rotatable=1;deletable=1;editable=1;locked=0;connectable=1;container=0;" parent="yyGTJ8SKnHVZ-51QReyp-6703" vertex="1">
          <mxGeometry x="34.49999999999997" y="2.825652173913028" width="3" height="2.9565217391304346" as="geometry" />
        </mxCell>
        <mxCell id="jP2WbbBxQBNUkDRbYnSl-612" value="" style="sketch=0;pointerEvents=1;shadow=0;dashed=0;html=1;strokeColor=none;fillColor=#FFFFFF;labelPosition=center;verticalLabelPosition=bottom;verticalAlign=top;align=center;outlineConnect=0;shape=mxgraph.vvd.infrastructure;movable=1;resizable=1;rotatable=1;deletable=1;editable=1;locked=0;connectable=1;container=0;" parent="yyGTJ8SKnHVZ-51QReyp-6703" vertex="1">
          <mxGeometry x="39.75" y="2.825652173913028" width="3" height="2.9565217391304346" as="geometry" />
        </mxCell>
        <mxCell id="jP2WbbBxQBNUkDRbYnSl-613" value="" style="triangle;whiteSpace=wrap;html=1;rotation=-90;fillColor=none;strokeWidth=0.1;movable=1;resizable=1;rotatable=1;deletable=1;editable=1;locked=0;connectable=1;container=0;" parent="yyGTJ8SKnHVZ-51QReyp-6703" vertex="1">
          <mxGeometry x="45" y="2.825652173913028" width="3" height="2.9565217391304346" as="geometry" />
        </mxCell>
        <mxCell id="jP2WbbBxQBNUkDRbYnSl-614" value="" style="sketch=0;html=1;strokeColor=default;shadow=0;fillColor=none;verticalAlign=top;labelPosition=center;verticalLabelPosition=bottom;shape=mxgraph.gcp2.a7_power;gradientColor=none;strokeWidth=0.1;movable=1;resizable=1;rotatable=1;deletable=1;editable=1;locked=0;connectable=1;container=0;" parent="yyGTJ8SKnHVZ-51QReyp-6703" vertex="1">
          <mxGeometry x="18.75" y="2.825652173913028" width="3" height="2.9565217391304346" as="geometry" />
        </mxCell>
        <mxCell id="jP2WbbBxQBNUkDRbYnSl-615" value="" style="rounded=0;whiteSpace=wrap;html=1;strokeColor=#aaaaaa;fillColor=#000000;strokeWidth=0.1;movable=1;resizable=1;rotatable=1;deletable=1;editable=1;locked=0;connectable=1;container=0;" parent="yyGTJ8SKnHVZ-51QReyp-6703" vertex="1">
          <mxGeometry x="66" y="7.260434782608684" width="14.999999999999998" height="5.913043478260869" as="geometry" />
        </mxCell>
        <mxCell id="jP2WbbBxQBNUkDRbYnSl-616" value="" style="rounded=0;whiteSpace=wrap;html=1;strokeColor=none;fillColor=#0050ef;strokeWidth=0.5;fontColor=#ffffff;movable=1;resizable=1;rotatable=1;deletable=1;editable=1;locked=0;connectable=1;container=0;" parent="yyGTJ8SKnHVZ-51QReyp-6703" vertex="1">
          <mxGeometry x="67.49999999999994" y="8.738695652173902" width="12" height="1.4782608695652173" as="geometry" />
        </mxCell>
        <mxCell id="jP2WbbBxQBNUkDRbYnSl-617" value="" style="rounded=0;whiteSpace=wrap;html=1;strokeColor=#aaaaaa;fillColor=#000000;strokeWidth=0.1;movable=1;resizable=1;rotatable=1;deletable=1;editable=1;locked=0;connectable=1;container=0;" parent="yyGTJ8SKnHVZ-51QReyp-6703" vertex="1">
          <mxGeometry x="50.04000000000019" y="7.260434782608684" width="14.999999999999998" height="5.913043478260869" as="geometry" />
        </mxCell>
        <mxCell id="jP2WbbBxQBNUkDRbYnSl-618" value="" style="rounded=0;whiteSpace=wrap;html=1;strokeColor=none;fillColor=#0050ef;strokeWidth=0.5;fontColor=#ffffff;movable=1;resizable=1;rotatable=1;deletable=1;editable=1;locked=0;connectable=1;container=0;" parent="yyGTJ8SKnHVZ-51QReyp-6703" vertex="1">
          <mxGeometry x="51.54000000000019" y="8.738695652173902" width="12" height="1.4782608695652173" as="geometry" />
        </mxCell>
        <mxCell id="kRLh6aXTUAaBPHpavEN1-85" value="" style="group" vertex="1" connectable="0" parent="yyGTJ8SKnHVZ-51QReyp-6704">
          <mxGeometry x="19.82787234042553" y="1.999999999999993" width="442.95212765957444" height="26.17924528301888" as="geometry" />
        </mxCell>
        <mxCell id="kRLh6aXTUAaBPHpavEN1-22" value="" style="group" vertex="1" connectable="0" parent="kRLh6aXTUAaBPHpavEN1-85">
          <mxGeometry x="333" y="7.105427357601002e-15" width="109.95212765957444" height="26.179245283018872" as="geometry" />
        </mxCell>
        <mxCell id="kRLh6aXTUAaBPHpavEN1-23" value="" style="rounded=0;whiteSpace=wrap;html=1;strokeColor=none;fillColor=#222222;strokeWidth=0.5;movable=1;resizable=1;rotatable=1;deletable=1;editable=1;locked=0;connectable=1;container=0;" vertex="1" parent="kRLh6aXTUAaBPHpavEN1-22">
          <mxGeometry width="109.95212765957447" height="26.179245283018872" as="geometry" />
        </mxCell>
        <mxCell id="kRLh6aXTUAaBPHpavEN1-24" value="" style="rounded=0;whiteSpace=wrap;html=1;strokeColor=#111111;fillColor=#000000;strokeWidth=0.5;movable=1;resizable=1;rotatable=1;deletable=1;editable=1;locked=0;connectable=1;container=0;align=center;verticalAlign=middle;fontFamily=Helvetica;fontSize=12;fontColor=default;" vertex="1" parent="kRLh6aXTUAaBPHpavEN1-22">
          <mxGeometry x="3.1414893617020994" y="3.1415094339622627" width="101.57482269503546" height="19.89622641509434" as="geometry" />
        </mxCell>
        <mxCell id="kRLh6aXTUAaBPHpavEN1-25" value="" style="rounded=1;whiteSpace=wrap;html=1;strokeColor=#222222;rotation=0;fillColor=#60a917;fontColor=#ffffff;movable=1;resizable=1;rotatable=1;deletable=1;editable=1;locked=0;connectable=1;container=0;direction=south;strokeWidth=0.1;" vertex="1" parent="kRLh6aXTUAaBPHpavEN1-22">
          <mxGeometry x="105.763475177305" y="20.943396226415096" width="3.141489361702128" height="4.188679245283019" as="geometry" />
        </mxCell>
        <mxCell id="kRLh6aXTUAaBPHpavEN1-26" value="" style="rounded=1;whiteSpace=wrap;html=1;strokeColor=#222222;rotation=0;fillColor=#0050ef;fontColor=#ffffff;movable=1;resizable=1;rotatable=1;deletable=1;editable=1;locked=0;connectable=1;container=0;direction=south;strokeWidth=0.1;" vertex="1" parent="kRLh6aXTUAaBPHpavEN1-22">
          <mxGeometry x="105.763475177305" y="11.518867924528301" width="3.141489361702128" height="4.188679245283019" as="geometry" />
        </mxCell>
        <mxCell id="kRLh6aXTUAaBPHpavEN1-27" value="" style="rounded=1;whiteSpace=wrap;html=1;strokeColor=none;fillColor=#0050ef;strokeWidth=0.5;fontColor=#ffffff;glass=0;movable=1;resizable=1;rotatable=1;deletable=1;editable=1;locked=0;connectable=1;container=0;" vertex="1" parent="kRLh6aXTUAaBPHpavEN1-22">
          <mxGeometry x="78.53723404255317" y="6.283018867924529" width="8.377304964539007" height="13.613207547169813" as="geometry" />
        </mxCell>
        <mxCell id="kRLh6aXTUAaBPHpavEN1-28" value="" style="shape=or;whiteSpace=wrap;html=1;fillColor=#0050ef;fontColor=#ffffff;strokeColor=none;movable=1;resizable=1;rotatable=1;deletable=1;editable=1;locked=0;connectable=1;container=0;" vertex="1" parent="kRLh6aXTUAaBPHpavEN1-22">
          <mxGeometry x="85.86737588652483" y="6.283018867924529" width="3.141489361702128" height="13.613207547169813" as="geometry" />
        </mxCell>
        <mxCell id="kRLh6aXTUAaBPHpavEN1-29" value="" style="sketch=0;html=1;strokeColor=#111111;shadow=0;fillColor=none;verticalAlign=top;labelPosition=center;verticalLabelPosition=bottom;shape=mxgraph.gcp2.a7_power;gradientColor=none;strokeWidth=0.2;movable=1;resizable=1;rotatable=1;deletable=1;editable=1;locked=0;connectable=1;container=0;" vertex="1" parent="kRLh6aXTUAaBPHpavEN1-22">
          <mxGeometry x="105.763475177305" y="7.330188679245282" width="3.141489361702128" height="3.1415094339622645" as="geometry" />
        </mxCell>
        <mxCell id="kRLh6aXTUAaBPHpavEN1-30" value="" style="strokeWidth=0.2;html=1;shape=mxgraph.flowchart.database;whiteSpace=wrap;strokeColor=#111111;fillColor=none;movable=1;resizable=1;rotatable=1;deletable=1;editable=1;locked=0;connectable=1;container=0;" vertex="1" parent="kRLh6aXTUAaBPHpavEN1-22">
          <mxGeometry x="105.763475177305" y="16.754716981132077" width="3.141489361702128" height="3.1415094339622645" as="geometry" />
        </mxCell>
        <mxCell id="kRLh6aXTUAaBPHpavEN1-31" value="" style="rounded=0;whiteSpace=wrap;html=1;strokeColor=none;fillColor=#222222;strokeWidth=0.5;movable=1;resizable=1;rotatable=1;deletable=1;editable=1;locked=0;connectable=1;container=0;" vertex="1" parent="kRLh6aXTUAaBPHpavEN1-22">
          <mxGeometry x="3.1414893617020994" y="3.1415094339622627" width="80.63156028368795" height="19.89622641509434" as="geometry" />
        </mxCell>
        <mxCell id="kRLh6aXTUAaBPHpavEN1-32" value="" style="rounded=0;whiteSpace=wrap;html=1;strokeColor=none;fillColor=#000000;strokeWidth=0.5;movable=1;resizable=1;rotatable=1;deletable=1;editable=1;locked=0;connectable=1;container=0;align=center;verticalAlign=middle;fontFamily=Helvetica;fontSize=12;fontColor=default;" vertex="1" parent="kRLh6aXTUAaBPHpavEN1-22">
          <mxGeometry x="13.613120567375915" y="5.759433962264151" width="55.499645390070924" height="2.0943396226415096" as="geometry" />
        </mxCell>
        <mxCell id="kRLh6aXTUAaBPHpavEN1-33" value="" style="rounded=0;whiteSpace=wrap;html=1;strokeColor=none;fillColor=#000000;strokeWidth=0.5;movable=1;resizable=1;rotatable=1;deletable=1;editable=1;locked=0;connectable=1;container=0;align=center;verticalAlign=middle;fontFamily=Helvetica;fontSize=12;fontColor=default;" vertex="1" parent="kRLh6aXTUAaBPHpavEN1-22">
          <mxGeometry x="13.613120567375915" y="9.94811320754717" width="55.499645390070924" height="2.0943396226415096" as="geometry" />
        </mxCell>
        <mxCell id="kRLh6aXTUAaBPHpavEN1-34" value="" style="rounded=0;whiteSpace=wrap;html=1;strokeColor=none;fillColor=#000000;strokeWidth=0.5;movable=1;resizable=1;rotatable=1;deletable=1;editable=1;locked=0;connectable=1;container=0;align=center;verticalAlign=middle;fontFamily=Helvetica;fontSize=12;fontColor=default;" vertex="1" parent="kRLh6aXTUAaBPHpavEN1-22">
          <mxGeometry x="13.613120567375915" y="14.136792452830193" width="55.499645390070924" height="2.0943396226415096" as="geometry" />
        </mxCell>
        <mxCell id="kRLh6aXTUAaBPHpavEN1-35" value="" style="rounded=0;whiteSpace=wrap;html=1;strokeColor=none;fillColor=#000000;strokeWidth=0.5;movable=1;resizable=1;rotatable=1;deletable=1;editable=1;locked=0;connectable=1;container=0;align=center;verticalAlign=middle;fontFamily=Helvetica;fontSize=12;fontColor=default;" vertex="1" parent="kRLh6aXTUAaBPHpavEN1-22">
          <mxGeometry x="13.613120567375915" y="18.325471698113205" width="55.499645390070924" height="2.0943396226415096" as="geometry" />
        </mxCell>
        <mxCell id="kRLh6aXTUAaBPHpavEN1-36" value="" style="rounded=0;whiteSpace=wrap;html=1;strokeColor=none;fillColor=#111111;strokeWidth=0.2;movable=1;resizable=1;rotatable=1;deletable=1;editable=1;locked=0;connectable=1;container=0;" vertex="1" parent="kRLh6aXTUAaBPHpavEN1-22">
          <mxGeometry x="30.36773049645393" y="5.759433962264151" width="2.094326241134752" height="14.660377358490567" as="geometry" />
        </mxCell>
        <mxCell id="kRLh6aXTUAaBPHpavEN1-37" value="" style="rounded=0;whiteSpace=wrap;html=1;strokeColor=none;fillColor=#111111;strokeWidth=0.2;movable=1;resizable=1;rotatable=1;deletable=1;editable=1;locked=0;connectable=1;container=0;" vertex="1" parent="kRLh6aXTUAaBPHpavEN1-22">
          <mxGeometry x="50.263829787234044" y="5.759433962264151" width="2.094326241134752" height="14.660377358490567" as="geometry" />
        </mxCell>
        <mxCell id="kRLh6aXTUAaBPHpavEN1-38" value="" style="rounded=0;whiteSpace=wrap;html=1;strokeColor=none;fillColor=#222222;strokeWidth=0.5;movable=1;resizable=1;rotatable=1;deletable=1;editable=1;locked=0;connectable=1;container=0;" vertex="1" parent="kRLh6aXTUAaBPHpavEN1-22">
          <mxGeometry x="13.613120567375915" y="16.2311320754717" width="55.499645390070924" height="2.0943396226415096" as="geometry" />
        </mxCell>
        <mxCell id="kRLh6aXTUAaBPHpavEN1-39" value="" style="rounded=0;whiteSpace=wrap;html=1;strokeColor=none;fillColor=#222222;strokeWidth=0.5;movable=1;resizable=1;rotatable=1;deletable=1;editable=1;locked=0;connectable=1;container=0;" vertex="1" parent="kRLh6aXTUAaBPHpavEN1-22">
          <mxGeometry x="13.613120567375915" y="12.04245283018868" width="55.499645390070924" height="2.0943396226415096" as="geometry" />
        </mxCell>
        <mxCell id="kRLh6aXTUAaBPHpavEN1-40" value="" style="rounded=0;whiteSpace=wrap;html=1;strokeColor=none;fillColor=#222222;strokeWidth=0.5;movable=1;resizable=1;rotatable=1;deletable=1;editable=1;locked=0;connectable=1;container=0;" vertex="1" parent="kRLh6aXTUAaBPHpavEN1-22">
          <mxGeometry x="13.613120567375915" y="7.85377358490566" width="55.499645390070924" height="2.0943396226415096" as="geometry" />
        </mxCell>
        <mxCell id="kRLh6aXTUAaBPHpavEN1-41" value="" style="rounded=0;whiteSpace=wrap;html=1;strokeColor=none;fillColor=#111111;strokeWidth=0.2;movable=1;resizable=1;rotatable=1;deletable=1;editable=1;locked=0;connectable=1;container=0;" vertex="1" parent="kRLh6aXTUAaBPHpavEN1-22">
          <mxGeometry x="9.424468085106412" y="5.759433962264151" width="4.188652482269504" height="14.660377358490567" as="geometry" />
        </mxCell>
        <mxCell id="kRLh6aXTUAaBPHpavEN1-42" value="" style="rounded=0;whiteSpace=wrap;html=1;strokeColor=none;fillColor=#111111;strokeWidth=0.2;movable=1;resizable=1;rotatable=1;deletable=1;editable=1;locked=0;connectable=1;container=0;" vertex="1" parent="kRLh6aXTUAaBPHpavEN1-22">
          <mxGeometry x="69.11276595744681" y="5.759433962264151" width="4.188652482269504" height="14.660377358490567" as="geometry" />
        </mxCell>
        <mxCell id="kRLh6aXTUAaBPHpavEN1-1" value="" style="group" vertex="1" connectable="0" parent="kRLh6aXTUAaBPHpavEN1-85">
          <mxGeometry x="222" y="7.105427357601002e-15" width="109.95212765957444" height="26.179245283018872" as="geometry" />
        </mxCell>
        <mxCell id="kRLh6aXTUAaBPHpavEN1-2" value="" style="rounded=0;whiteSpace=wrap;html=1;strokeColor=none;fillColor=#222222;strokeWidth=0.5;movable=1;resizable=1;rotatable=1;deletable=1;editable=1;locked=0;connectable=1;container=0;" vertex="1" parent="kRLh6aXTUAaBPHpavEN1-1">
          <mxGeometry width="109.95212765957447" height="26.179245283018872" as="geometry" />
        </mxCell>
        <mxCell id="kRLh6aXTUAaBPHpavEN1-3" value="" style="rounded=0;whiteSpace=wrap;html=1;strokeColor=#111111;fillColor=#000000;strokeWidth=0.5;movable=1;resizable=1;rotatable=1;deletable=1;editable=1;locked=0;connectable=1;container=0;align=center;verticalAlign=middle;fontFamily=Helvetica;fontSize=12;fontColor=default;" vertex="1" parent="kRLh6aXTUAaBPHpavEN1-1">
          <mxGeometry x="3.1414893617020994" y="3.1415094339622627" width="101.57482269503546" height="19.89622641509434" as="geometry" />
        </mxCell>
        <mxCell id="kRLh6aXTUAaBPHpavEN1-4" value="" style="rounded=1;whiteSpace=wrap;html=1;strokeColor=#222222;rotation=0;fillColor=#60a917;fontColor=#ffffff;movable=1;resizable=1;rotatable=1;deletable=1;editable=1;locked=0;connectable=1;container=0;direction=south;strokeWidth=0.1;" vertex="1" parent="kRLh6aXTUAaBPHpavEN1-1">
          <mxGeometry x="105.763475177305" y="20.943396226415096" width="3.141489361702128" height="4.188679245283019" as="geometry" />
        </mxCell>
        <mxCell id="kRLh6aXTUAaBPHpavEN1-5" value="" style="rounded=1;whiteSpace=wrap;html=1;strokeColor=#222222;rotation=0;fillColor=#0050ef;fontColor=#ffffff;movable=1;resizable=1;rotatable=1;deletable=1;editable=1;locked=0;connectable=1;container=0;direction=south;strokeWidth=0.1;" vertex="1" parent="kRLh6aXTUAaBPHpavEN1-1">
          <mxGeometry x="105.763475177305" y="11.518867924528301" width="3.141489361702128" height="4.188679245283019" as="geometry" />
        </mxCell>
        <mxCell id="kRLh6aXTUAaBPHpavEN1-6" value="" style="rounded=1;whiteSpace=wrap;html=1;strokeColor=none;fillColor=#0050ef;strokeWidth=0.5;fontColor=#ffffff;glass=0;movable=1;resizable=1;rotatable=1;deletable=1;editable=1;locked=0;connectable=1;container=0;" vertex="1" parent="kRLh6aXTUAaBPHpavEN1-1">
          <mxGeometry x="78.53723404255317" y="6.283018867924529" width="8.377304964539007" height="13.613207547169813" as="geometry" />
        </mxCell>
        <mxCell id="kRLh6aXTUAaBPHpavEN1-7" value="" style="shape=or;whiteSpace=wrap;html=1;fillColor=#0050ef;fontColor=#ffffff;strokeColor=none;movable=1;resizable=1;rotatable=1;deletable=1;editable=1;locked=0;connectable=1;container=0;" vertex="1" parent="kRLh6aXTUAaBPHpavEN1-1">
          <mxGeometry x="85.86737588652483" y="6.283018867924529" width="3.141489361702128" height="13.613207547169813" as="geometry" />
        </mxCell>
        <mxCell id="kRLh6aXTUAaBPHpavEN1-8" value="" style="sketch=0;html=1;strokeColor=#111111;shadow=0;fillColor=none;verticalAlign=top;labelPosition=center;verticalLabelPosition=bottom;shape=mxgraph.gcp2.a7_power;gradientColor=none;strokeWidth=0.2;movable=1;resizable=1;rotatable=1;deletable=1;editable=1;locked=0;connectable=1;container=0;" vertex="1" parent="kRLh6aXTUAaBPHpavEN1-1">
          <mxGeometry x="105.763475177305" y="7.330188679245282" width="3.141489361702128" height="3.1415094339622645" as="geometry" />
        </mxCell>
        <mxCell id="kRLh6aXTUAaBPHpavEN1-9" value="" style="strokeWidth=0.2;html=1;shape=mxgraph.flowchart.database;whiteSpace=wrap;strokeColor=#111111;fillColor=none;movable=1;resizable=1;rotatable=1;deletable=1;editable=1;locked=0;connectable=1;container=0;" vertex="1" parent="kRLh6aXTUAaBPHpavEN1-1">
          <mxGeometry x="105.763475177305" y="16.754716981132077" width="3.141489361702128" height="3.1415094339622645" as="geometry" />
        </mxCell>
        <mxCell id="kRLh6aXTUAaBPHpavEN1-10" value="" style="rounded=0;whiteSpace=wrap;html=1;strokeColor=none;fillColor=#222222;strokeWidth=0.5;movable=1;resizable=1;rotatable=1;deletable=1;editable=1;locked=0;connectable=1;container=0;" vertex="1" parent="kRLh6aXTUAaBPHpavEN1-1">
          <mxGeometry x="3.1414893617020994" y="3.1415094339622627" width="80.63156028368795" height="19.89622641509434" as="geometry" />
        </mxCell>
        <mxCell id="kRLh6aXTUAaBPHpavEN1-11" value="" style="rounded=0;whiteSpace=wrap;html=1;strokeColor=none;fillColor=#000000;strokeWidth=0.5;movable=1;resizable=1;rotatable=1;deletable=1;editable=1;locked=0;connectable=1;container=0;align=center;verticalAlign=middle;fontFamily=Helvetica;fontSize=12;fontColor=default;" vertex="1" parent="kRLh6aXTUAaBPHpavEN1-1">
          <mxGeometry x="13.613120567375915" y="5.759433962264151" width="55.499645390070924" height="2.0943396226415096" as="geometry" />
        </mxCell>
        <mxCell id="kRLh6aXTUAaBPHpavEN1-12" value="" style="rounded=0;whiteSpace=wrap;html=1;strokeColor=none;fillColor=#000000;strokeWidth=0.5;movable=1;resizable=1;rotatable=1;deletable=1;editable=1;locked=0;connectable=1;container=0;align=center;verticalAlign=middle;fontFamily=Helvetica;fontSize=12;fontColor=default;" vertex="1" parent="kRLh6aXTUAaBPHpavEN1-1">
          <mxGeometry x="13.613120567375915" y="9.94811320754717" width="55.499645390070924" height="2.0943396226415096" as="geometry" />
        </mxCell>
        <mxCell id="kRLh6aXTUAaBPHpavEN1-13" value="" style="rounded=0;whiteSpace=wrap;html=1;strokeColor=none;fillColor=#000000;strokeWidth=0.5;movable=1;resizable=1;rotatable=1;deletable=1;editable=1;locked=0;connectable=1;container=0;align=center;verticalAlign=middle;fontFamily=Helvetica;fontSize=12;fontColor=default;" vertex="1" parent="kRLh6aXTUAaBPHpavEN1-1">
          <mxGeometry x="13.613120567375915" y="14.136792452830193" width="55.499645390070924" height="2.0943396226415096" as="geometry" />
        </mxCell>
        <mxCell id="kRLh6aXTUAaBPHpavEN1-14" value="" style="rounded=0;whiteSpace=wrap;html=1;strokeColor=none;fillColor=#000000;strokeWidth=0.5;movable=1;resizable=1;rotatable=1;deletable=1;editable=1;locked=0;connectable=1;container=0;align=center;verticalAlign=middle;fontFamily=Helvetica;fontSize=12;fontColor=default;" vertex="1" parent="kRLh6aXTUAaBPHpavEN1-1">
          <mxGeometry x="13.613120567375915" y="18.325471698113205" width="55.499645390070924" height="2.0943396226415096" as="geometry" />
        </mxCell>
        <mxCell id="kRLh6aXTUAaBPHpavEN1-15" value="" style="rounded=0;whiteSpace=wrap;html=1;strokeColor=none;fillColor=#111111;strokeWidth=0.2;movable=1;resizable=1;rotatable=1;deletable=1;editable=1;locked=0;connectable=1;container=0;" vertex="1" parent="kRLh6aXTUAaBPHpavEN1-1">
          <mxGeometry x="30.36773049645393" y="5.759433962264151" width="2.094326241134752" height="14.660377358490567" as="geometry" />
        </mxCell>
        <mxCell id="kRLh6aXTUAaBPHpavEN1-16" value="" style="rounded=0;whiteSpace=wrap;html=1;strokeColor=none;fillColor=#111111;strokeWidth=0.2;movable=1;resizable=1;rotatable=1;deletable=1;editable=1;locked=0;connectable=1;container=0;" vertex="1" parent="kRLh6aXTUAaBPHpavEN1-1">
          <mxGeometry x="50.263829787234044" y="5.759433962264151" width="2.094326241134752" height="14.660377358490567" as="geometry" />
        </mxCell>
        <mxCell id="kRLh6aXTUAaBPHpavEN1-17" value="" style="rounded=0;whiteSpace=wrap;html=1;strokeColor=none;fillColor=#222222;strokeWidth=0.5;movable=1;resizable=1;rotatable=1;deletable=1;editable=1;locked=0;connectable=1;container=0;" vertex="1" parent="kRLh6aXTUAaBPHpavEN1-1">
          <mxGeometry x="13.613120567375915" y="16.2311320754717" width="55.499645390070924" height="2.0943396226415096" as="geometry" />
        </mxCell>
        <mxCell id="kRLh6aXTUAaBPHpavEN1-18" value="" style="rounded=0;whiteSpace=wrap;html=1;strokeColor=none;fillColor=#222222;strokeWidth=0.5;movable=1;resizable=1;rotatable=1;deletable=1;editable=1;locked=0;connectable=1;container=0;" vertex="1" parent="kRLh6aXTUAaBPHpavEN1-1">
          <mxGeometry x="13.613120567375915" y="12.04245283018868" width="55.499645390070924" height="2.0943396226415096" as="geometry" />
        </mxCell>
        <mxCell id="kRLh6aXTUAaBPHpavEN1-19" value="" style="rounded=0;whiteSpace=wrap;html=1;strokeColor=none;fillColor=#222222;strokeWidth=0.5;movable=1;resizable=1;rotatable=1;deletable=1;editable=1;locked=0;connectable=1;container=0;" vertex="1" parent="kRLh6aXTUAaBPHpavEN1-1">
          <mxGeometry x="13.613120567375915" y="7.85377358490566" width="55.499645390070924" height="2.0943396226415096" as="geometry" />
        </mxCell>
        <mxCell id="kRLh6aXTUAaBPHpavEN1-20" value="" style="rounded=0;whiteSpace=wrap;html=1;strokeColor=none;fillColor=#111111;strokeWidth=0.2;movable=1;resizable=1;rotatable=1;deletable=1;editable=1;locked=0;connectable=1;container=0;" vertex="1" parent="kRLh6aXTUAaBPHpavEN1-1">
          <mxGeometry x="9.424468085106412" y="5.759433962264151" width="4.188652482269504" height="14.660377358490567" as="geometry" />
        </mxCell>
        <mxCell id="kRLh6aXTUAaBPHpavEN1-21" value="" style="rounded=0;whiteSpace=wrap;html=1;strokeColor=none;fillColor=#111111;strokeWidth=0.2;movable=1;resizable=1;rotatable=1;deletable=1;editable=1;locked=0;connectable=1;container=0;" vertex="1" parent="kRLh6aXTUAaBPHpavEN1-1">
          <mxGeometry x="69.11276595744681" y="5.759433962264151" width="4.188652482269504" height="14.660377358490567" as="geometry" />
        </mxCell>
        <mxCell id="kRLh6aXTUAaBPHpavEN1-43" value="" style="group" vertex="1" connectable="0" parent="kRLh6aXTUAaBPHpavEN1-85">
          <mxGeometry x="111" y="7.105427357601002e-15" width="109.95212765957444" height="26.179245283018872" as="geometry" />
        </mxCell>
        <mxCell id="kRLh6aXTUAaBPHpavEN1-44" value="" style="rounded=0;whiteSpace=wrap;html=1;strokeColor=none;fillColor=#222222;strokeWidth=0.5;movable=1;resizable=1;rotatable=1;deletable=1;editable=1;locked=0;connectable=1;container=0;" vertex="1" parent="kRLh6aXTUAaBPHpavEN1-43">
          <mxGeometry width="109.95212765957447" height="26.179245283018872" as="geometry" />
        </mxCell>
        <mxCell id="kRLh6aXTUAaBPHpavEN1-45" value="" style="rounded=0;whiteSpace=wrap;html=1;strokeColor=#111111;fillColor=#000000;strokeWidth=0.5;movable=1;resizable=1;rotatable=1;deletable=1;editable=1;locked=0;connectable=1;container=0;align=center;verticalAlign=middle;fontFamily=Helvetica;fontSize=12;fontColor=default;" vertex="1" parent="kRLh6aXTUAaBPHpavEN1-43">
          <mxGeometry x="3.1414893617020994" y="3.1415094339622627" width="101.57482269503546" height="19.89622641509434" as="geometry" />
        </mxCell>
        <mxCell id="kRLh6aXTUAaBPHpavEN1-46" value="" style="rounded=1;whiteSpace=wrap;html=1;strokeColor=#222222;rotation=0;fillColor=#60a917;fontColor=#ffffff;movable=1;resizable=1;rotatable=1;deletable=1;editable=1;locked=0;connectable=1;container=0;direction=south;strokeWidth=0.1;" vertex="1" parent="kRLh6aXTUAaBPHpavEN1-43">
          <mxGeometry x="105.763475177305" y="20.943396226415096" width="3.141489361702128" height="4.188679245283019" as="geometry" />
        </mxCell>
        <mxCell id="kRLh6aXTUAaBPHpavEN1-47" value="" style="rounded=1;whiteSpace=wrap;html=1;strokeColor=#222222;rotation=0;fillColor=#0050ef;fontColor=#ffffff;movable=1;resizable=1;rotatable=1;deletable=1;editable=1;locked=0;connectable=1;container=0;direction=south;strokeWidth=0.1;" vertex="1" parent="kRLh6aXTUAaBPHpavEN1-43">
          <mxGeometry x="105.763475177305" y="11.518867924528301" width="3.141489361702128" height="4.188679245283019" as="geometry" />
        </mxCell>
        <mxCell id="kRLh6aXTUAaBPHpavEN1-48" value="" style="rounded=1;whiteSpace=wrap;html=1;strokeColor=none;fillColor=#0050ef;strokeWidth=0.5;fontColor=#ffffff;glass=0;movable=1;resizable=1;rotatable=1;deletable=1;editable=1;locked=0;connectable=1;container=0;" vertex="1" parent="kRLh6aXTUAaBPHpavEN1-43">
          <mxGeometry x="78.53723404255317" y="6.283018867924529" width="8.377304964539007" height="13.613207547169813" as="geometry" />
        </mxCell>
        <mxCell id="kRLh6aXTUAaBPHpavEN1-49" value="" style="shape=or;whiteSpace=wrap;html=1;fillColor=#0050ef;fontColor=#ffffff;strokeColor=none;movable=1;resizable=1;rotatable=1;deletable=1;editable=1;locked=0;connectable=1;container=0;" vertex="1" parent="kRLh6aXTUAaBPHpavEN1-43">
          <mxGeometry x="85.86737588652483" y="6.283018867924529" width="3.141489361702128" height="13.613207547169813" as="geometry" />
        </mxCell>
        <mxCell id="kRLh6aXTUAaBPHpavEN1-50" value="" style="sketch=0;html=1;strokeColor=#111111;shadow=0;fillColor=none;verticalAlign=top;labelPosition=center;verticalLabelPosition=bottom;shape=mxgraph.gcp2.a7_power;gradientColor=none;strokeWidth=0.2;movable=1;resizable=1;rotatable=1;deletable=1;editable=1;locked=0;connectable=1;container=0;" vertex="1" parent="kRLh6aXTUAaBPHpavEN1-43">
          <mxGeometry x="105.763475177305" y="7.330188679245282" width="3.141489361702128" height="3.1415094339622645" as="geometry" />
        </mxCell>
        <mxCell id="kRLh6aXTUAaBPHpavEN1-51" value="" style="strokeWidth=0.2;html=1;shape=mxgraph.flowchart.database;whiteSpace=wrap;strokeColor=#111111;fillColor=none;movable=1;resizable=1;rotatable=1;deletable=1;editable=1;locked=0;connectable=1;container=0;" vertex="1" parent="kRLh6aXTUAaBPHpavEN1-43">
          <mxGeometry x="105.763475177305" y="16.754716981132077" width="3.141489361702128" height="3.1415094339622645" as="geometry" />
        </mxCell>
        <mxCell id="kRLh6aXTUAaBPHpavEN1-52" value="" style="rounded=0;whiteSpace=wrap;html=1;strokeColor=none;fillColor=#222222;strokeWidth=0.5;movable=1;resizable=1;rotatable=1;deletable=1;editable=1;locked=0;connectable=1;container=0;" vertex="1" parent="kRLh6aXTUAaBPHpavEN1-43">
          <mxGeometry x="3.1414893617020994" y="3.1415094339622627" width="80.63156028368795" height="19.89622641509434" as="geometry" />
        </mxCell>
        <mxCell id="kRLh6aXTUAaBPHpavEN1-53" value="" style="rounded=0;whiteSpace=wrap;html=1;strokeColor=none;fillColor=#000000;strokeWidth=0.5;movable=1;resizable=1;rotatable=1;deletable=1;editable=1;locked=0;connectable=1;container=0;align=center;verticalAlign=middle;fontFamily=Helvetica;fontSize=12;fontColor=default;" vertex="1" parent="kRLh6aXTUAaBPHpavEN1-43">
          <mxGeometry x="13.613120567375915" y="5.759433962264151" width="55.499645390070924" height="2.0943396226415096" as="geometry" />
        </mxCell>
        <mxCell id="kRLh6aXTUAaBPHpavEN1-54" value="" style="rounded=0;whiteSpace=wrap;html=1;strokeColor=none;fillColor=#000000;strokeWidth=0.5;movable=1;resizable=1;rotatable=1;deletable=1;editable=1;locked=0;connectable=1;container=0;align=center;verticalAlign=middle;fontFamily=Helvetica;fontSize=12;fontColor=default;" vertex="1" parent="kRLh6aXTUAaBPHpavEN1-43">
          <mxGeometry x="13.613120567375915" y="9.94811320754717" width="55.499645390070924" height="2.0943396226415096" as="geometry" />
        </mxCell>
        <mxCell id="kRLh6aXTUAaBPHpavEN1-55" value="" style="rounded=0;whiteSpace=wrap;html=1;strokeColor=none;fillColor=#000000;strokeWidth=0.5;movable=1;resizable=1;rotatable=1;deletable=1;editable=1;locked=0;connectable=1;container=0;align=center;verticalAlign=middle;fontFamily=Helvetica;fontSize=12;fontColor=default;" vertex="1" parent="kRLh6aXTUAaBPHpavEN1-43">
          <mxGeometry x="13.613120567375915" y="14.136792452830193" width="55.499645390070924" height="2.0943396226415096" as="geometry" />
        </mxCell>
        <mxCell id="kRLh6aXTUAaBPHpavEN1-56" value="" style="rounded=0;whiteSpace=wrap;html=1;strokeColor=none;fillColor=#000000;strokeWidth=0.5;movable=1;resizable=1;rotatable=1;deletable=1;editable=1;locked=0;connectable=1;container=0;align=center;verticalAlign=middle;fontFamily=Helvetica;fontSize=12;fontColor=default;" vertex="1" parent="kRLh6aXTUAaBPHpavEN1-43">
          <mxGeometry x="13.613120567375915" y="18.325471698113205" width="55.499645390070924" height="2.0943396226415096" as="geometry" />
        </mxCell>
        <mxCell id="kRLh6aXTUAaBPHpavEN1-57" value="" style="rounded=0;whiteSpace=wrap;html=1;strokeColor=none;fillColor=#111111;strokeWidth=0.2;movable=1;resizable=1;rotatable=1;deletable=1;editable=1;locked=0;connectable=1;container=0;" vertex="1" parent="kRLh6aXTUAaBPHpavEN1-43">
          <mxGeometry x="30.36773049645393" y="5.759433962264151" width="2.094326241134752" height="14.660377358490567" as="geometry" />
        </mxCell>
        <mxCell id="kRLh6aXTUAaBPHpavEN1-58" value="" style="rounded=0;whiteSpace=wrap;html=1;strokeColor=none;fillColor=#111111;strokeWidth=0.2;movable=1;resizable=1;rotatable=1;deletable=1;editable=1;locked=0;connectable=1;container=0;" vertex="1" parent="kRLh6aXTUAaBPHpavEN1-43">
          <mxGeometry x="50.263829787234044" y="5.759433962264151" width="2.094326241134752" height="14.660377358490567" as="geometry" />
        </mxCell>
        <mxCell id="kRLh6aXTUAaBPHpavEN1-59" value="" style="rounded=0;whiteSpace=wrap;html=1;strokeColor=none;fillColor=#222222;strokeWidth=0.5;movable=1;resizable=1;rotatable=1;deletable=1;editable=1;locked=0;connectable=1;container=0;" vertex="1" parent="kRLh6aXTUAaBPHpavEN1-43">
          <mxGeometry x="13.613120567375915" y="16.2311320754717" width="55.499645390070924" height="2.0943396226415096" as="geometry" />
        </mxCell>
        <mxCell id="kRLh6aXTUAaBPHpavEN1-60" value="" style="rounded=0;whiteSpace=wrap;html=1;strokeColor=none;fillColor=#222222;strokeWidth=0.5;movable=1;resizable=1;rotatable=1;deletable=1;editable=1;locked=0;connectable=1;container=0;" vertex="1" parent="kRLh6aXTUAaBPHpavEN1-43">
          <mxGeometry x="13.613120567375915" y="12.04245283018868" width="55.499645390070924" height="2.0943396226415096" as="geometry" />
        </mxCell>
        <mxCell id="kRLh6aXTUAaBPHpavEN1-61" value="" style="rounded=0;whiteSpace=wrap;html=1;strokeColor=none;fillColor=#222222;strokeWidth=0.5;movable=1;resizable=1;rotatable=1;deletable=1;editable=1;locked=0;connectable=1;container=0;" vertex="1" parent="kRLh6aXTUAaBPHpavEN1-43">
          <mxGeometry x="13.613120567375915" y="7.85377358490566" width="55.499645390070924" height="2.0943396226415096" as="geometry" />
        </mxCell>
        <mxCell id="kRLh6aXTUAaBPHpavEN1-62" value="" style="rounded=0;whiteSpace=wrap;html=1;strokeColor=none;fillColor=#111111;strokeWidth=0.2;movable=1;resizable=1;rotatable=1;deletable=1;editable=1;locked=0;connectable=1;container=0;" vertex="1" parent="kRLh6aXTUAaBPHpavEN1-43">
          <mxGeometry x="9.424468085106412" y="5.759433962264151" width="4.188652482269504" height="14.660377358490567" as="geometry" />
        </mxCell>
        <mxCell id="kRLh6aXTUAaBPHpavEN1-63" value="" style="rounded=0;whiteSpace=wrap;html=1;strokeColor=none;fillColor=#111111;strokeWidth=0.2;movable=1;resizable=1;rotatable=1;deletable=1;editable=1;locked=0;connectable=1;container=0;" vertex="1" parent="kRLh6aXTUAaBPHpavEN1-43">
          <mxGeometry x="69.11276595744681" y="5.759433962264151" width="4.188652482269504" height="14.660377358490567" as="geometry" />
        </mxCell>
        <mxCell id="kRLh6aXTUAaBPHpavEN1-64" value="" style="group" vertex="1" connectable="0" parent="kRLh6aXTUAaBPHpavEN1-85">
          <mxGeometry width="109.95212765957444" height="26.179245283018872" as="geometry" />
        </mxCell>
        <mxCell id="kRLh6aXTUAaBPHpavEN1-65" value="" style="rounded=0;whiteSpace=wrap;html=1;strokeColor=none;fillColor=#222222;strokeWidth=0.5;movable=1;resizable=1;rotatable=1;deletable=1;editable=1;locked=0;connectable=1;container=0;" vertex="1" parent="kRLh6aXTUAaBPHpavEN1-64">
          <mxGeometry width="109.95212765957447" height="26.179245283018872" as="geometry" />
        </mxCell>
        <mxCell id="kRLh6aXTUAaBPHpavEN1-66" value="" style="rounded=0;whiteSpace=wrap;html=1;strokeColor=#111111;fillColor=#000000;strokeWidth=0.5;movable=1;resizable=1;rotatable=1;deletable=1;editable=1;locked=0;connectable=1;container=0;align=center;verticalAlign=middle;fontFamily=Helvetica;fontSize=12;fontColor=default;" vertex="1" parent="kRLh6aXTUAaBPHpavEN1-64">
          <mxGeometry x="3.1414893617020994" y="3.1415094339622627" width="101.57482269503546" height="19.89622641509434" as="geometry" />
        </mxCell>
        <mxCell id="kRLh6aXTUAaBPHpavEN1-67" value="" style="rounded=1;whiteSpace=wrap;html=1;strokeColor=#222222;rotation=0;fillColor=#60a917;fontColor=#ffffff;movable=1;resizable=1;rotatable=1;deletable=1;editable=1;locked=0;connectable=1;container=0;direction=south;strokeWidth=0.1;" vertex="1" parent="kRLh6aXTUAaBPHpavEN1-64">
          <mxGeometry x="105.763475177305" y="20.943396226415096" width="3.141489361702128" height="4.188679245283019" as="geometry" />
        </mxCell>
        <mxCell id="kRLh6aXTUAaBPHpavEN1-68" value="" style="rounded=1;whiteSpace=wrap;html=1;strokeColor=#222222;rotation=0;fillColor=#0050ef;fontColor=#ffffff;movable=1;resizable=1;rotatable=1;deletable=1;editable=1;locked=0;connectable=1;container=0;direction=south;strokeWidth=0.1;" vertex="1" parent="kRLh6aXTUAaBPHpavEN1-64">
          <mxGeometry x="105.763475177305" y="11.518867924528301" width="3.141489361702128" height="4.188679245283019" as="geometry" />
        </mxCell>
        <mxCell id="kRLh6aXTUAaBPHpavEN1-69" value="" style="rounded=1;whiteSpace=wrap;html=1;strokeColor=none;fillColor=#0050ef;strokeWidth=0.5;fontColor=#ffffff;glass=0;movable=1;resizable=1;rotatable=1;deletable=1;editable=1;locked=0;connectable=1;container=0;" vertex="1" parent="kRLh6aXTUAaBPHpavEN1-64">
          <mxGeometry x="78.53723404255317" y="6.283018867924529" width="8.377304964539007" height="13.613207547169813" as="geometry" />
        </mxCell>
        <mxCell id="kRLh6aXTUAaBPHpavEN1-70" value="" style="shape=or;whiteSpace=wrap;html=1;fillColor=#0050ef;fontColor=#ffffff;strokeColor=none;movable=1;resizable=1;rotatable=1;deletable=1;editable=1;locked=0;connectable=1;container=0;" vertex="1" parent="kRLh6aXTUAaBPHpavEN1-64">
          <mxGeometry x="85.86737588652483" y="6.283018867924529" width="3.141489361702128" height="13.613207547169813" as="geometry" />
        </mxCell>
        <mxCell id="kRLh6aXTUAaBPHpavEN1-71" value="" style="sketch=0;html=1;strokeColor=#111111;shadow=0;fillColor=none;verticalAlign=top;labelPosition=center;verticalLabelPosition=bottom;shape=mxgraph.gcp2.a7_power;gradientColor=none;strokeWidth=0.2;movable=1;resizable=1;rotatable=1;deletable=1;editable=1;locked=0;connectable=1;container=0;" vertex="1" parent="kRLh6aXTUAaBPHpavEN1-64">
          <mxGeometry x="105.763475177305" y="7.330188679245282" width="3.141489361702128" height="3.1415094339622645" as="geometry" />
        </mxCell>
        <mxCell id="kRLh6aXTUAaBPHpavEN1-72" value="" style="strokeWidth=0.2;html=1;shape=mxgraph.flowchart.database;whiteSpace=wrap;strokeColor=#111111;fillColor=none;movable=1;resizable=1;rotatable=1;deletable=1;editable=1;locked=0;connectable=1;container=0;" vertex="1" parent="kRLh6aXTUAaBPHpavEN1-64">
          <mxGeometry x="105.763475177305" y="16.754716981132077" width="3.141489361702128" height="3.1415094339622645" as="geometry" />
        </mxCell>
        <mxCell id="kRLh6aXTUAaBPHpavEN1-73" value="" style="rounded=0;whiteSpace=wrap;html=1;strokeColor=none;fillColor=#222222;strokeWidth=0.5;movable=1;resizable=1;rotatable=1;deletable=1;editable=1;locked=0;connectable=1;container=0;" vertex="1" parent="kRLh6aXTUAaBPHpavEN1-64">
          <mxGeometry x="3.1414893617020994" y="3.1415094339622627" width="80.63156028368795" height="19.89622641509434" as="geometry" />
        </mxCell>
        <mxCell id="kRLh6aXTUAaBPHpavEN1-74" value="" style="rounded=0;whiteSpace=wrap;html=1;strokeColor=none;fillColor=#000000;strokeWidth=0.5;movable=1;resizable=1;rotatable=1;deletable=1;editable=1;locked=0;connectable=1;container=0;align=center;verticalAlign=middle;fontFamily=Helvetica;fontSize=12;fontColor=default;" vertex="1" parent="kRLh6aXTUAaBPHpavEN1-64">
          <mxGeometry x="13.613120567375915" y="5.759433962264151" width="55.499645390070924" height="2.0943396226415096" as="geometry" />
        </mxCell>
        <mxCell id="kRLh6aXTUAaBPHpavEN1-75" value="" style="rounded=0;whiteSpace=wrap;html=1;strokeColor=none;fillColor=#000000;strokeWidth=0.5;movable=1;resizable=1;rotatable=1;deletable=1;editable=1;locked=0;connectable=1;container=0;align=center;verticalAlign=middle;fontFamily=Helvetica;fontSize=12;fontColor=default;" vertex="1" parent="kRLh6aXTUAaBPHpavEN1-64">
          <mxGeometry x="13.613120567375915" y="9.94811320754717" width="55.499645390070924" height="2.0943396226415096" as="geometry" />
        </mxCell>
        <mxCell id="kRLh6aXTUAaBPHpavEN1-76" value="" style="rounded=0;whiteSpace=wrap;html=1;strokeColor=none;fillColor=#000000;strokeWidth=0.5;movable=1;resizable=1;rotatable=1;deletable=1;editable=1;locked=0;connectable=1;container=0;align=center;verticalAlign=middle;fontFamily=Helvetica;fontSize=12;fontColor=default;" vertex="1" parent="kRLh6aXTUAaBPHpavEN1-64">
          <mxGeometry x="13.613120567375915" y="14.136792452830193" width="55.499645390070924" height="2.0943396226415096" as="geometry" />
        </mxCell>
        <mxCell id="kRLh6aXTUAaBPHpavEN1-77" value="" style="rounded=0;whiteSpace=wrap;html=1;strokeColor=none;fillColor=#000000;strokeWidth=0.5;movable=1;resizable=1;rotatable=1;deletable=1;editable=1;locked=0;connectable=1;container=0;align=center;verticalAlign=middle;fontFamily=Helvetica;fontSize=12;fontColor=default;" vertex="1" parent="kRLh6aXTUAaBPHpavEN1-64">
          <mxGeometry x="13.613120567375915" y="18.325471698113205" width="55.499645390070924" height="2.0943396226415096" as="geometry" />
        </mxCell>
        <mxCell id="kRLh6aXTUAaBPHpavEN1-78" value="" style="rounded=0;whiteSpace=wrap;html=1;strokeColor=none;fillColor=#111111;strokeWidth=0.2;movable=1;resizable=1;rotatable=1;deletable=1;editable=1;locked=0;connectable=1;container=0;" vertex="1" parent="kRLh6aXTUAaBPHpavEN1-64">
          <mxGeometry x="30.36773049645393" y="5.759433962264151" width="2.094326241134752" height="14.660377358490567" as="geometry" />
        </mxCell>
        <mxCell id="kRLh6aXTUAaBPHpavEN1-79" value="" style="rounded=0;whiteSpace=wrap;html=1;strokeColor=none;fillColor=#111111;strokeWidth=0.2;movable=1;resizable=1;rotatable=1;deletable=1;editable=1;locked=0;connectable=1;container=0;" vertex="1" parent="kRLh6aXTUAaBPHpavEN1-64">
          <mxGeometry x="50.263829787234044" y="5.759433962264151" width="2.094326241134752" height="14.660377358490567" as="geometry" />
        </mxCell>
        <mxCell id="kRLh6aXTUAaBPHpavEN1-80" value="" style="rounded=0;whiteSpace=wrap;html=1;strokeColor=none;fillColor=#222222;strokeWidth=0.5;movable=1;resizable=1;rotatable=1;deletable=1;editable=1;locked=0;connectable=1;container=0;" vertex="1" parent="kRLh6aXTUAaBPHpavEN1-64">
          <mxGeometry x="13.613120567375915" y="16.2311320754717" width="55.499645390070924" height="2.0943396226415096" as="geometry" />
        </mxCell>
        <mxCell id="kRLh6aXTUAaBPHpavEN1-81" value="" style="rounded=0;whiteSpace=wrap;html=1;strokeColor=none;fillColor=#222222;strokeWidth=0.5;movable=1;resizable=1;rotatable=1;deletable=1;editable=1;locked=0;connectable=1;container=0;" vertex="1" parent="kRLh6aXTUAaBPHpavEN1-64">
          <mxGeometry x="13.613120567375915" y="12.04245283018868" width="55.499645390070924" height="2.0943396226415096" as="geometry" />
        </mxCell>
        <mxCell id="kRLh6aXTUAaBPHpavEN1-82" value="" style="rounded=0;whiteSpace=wrap;html=1;strokeColor=none;fillColor=#222222;strokeWidth=0.5;movable=1;resizable=1;rotatable=1;deletable=1;editable=1;locked=0;connectable=1;container=0;" vertex="1" parent="kRLh6aXTUAaBPHpavEN1-64">
          <mxGeometry x="13.613120567375915" y="7.85377358490566" width="55.499645390070924" height="2.0943396226415096" as="geometry" />
        </mxCell>
        <mxCell id="kRLh6aXTUAaBPHpavEN1-83" value="" style="rounded=0;whiteSpace=wrap;html=1;strokeColor=none;fillColor=#111111;strokeWidth=0.2;movable=1;resizable=1;rotatable=1;deletable=1;editable=1;locked=0;connectable=1;container=0;" vertex="1" parent="kRLh6aXTUAaBPHpavEN1-64">
          <mxGeometry x="9.424468085106412" y="5.759433962264151" width="4.188652482269504" height="14.660377358490567" as="geometry" />
        </mxCell>
        <mxCell id="kRLh6aXTUAaBPHpavEN1-84" value="" style="rounded=0;whiteSpace=wrap;html=1;strokeColor=none;fillColor=#111111;strokeWidth=0.2;movable=1;resizable=1;rotatable=1;deletable=1;editable=1;locked=0;connectable=1;container=0;" vertex="1" parent="kRLh6aXTUAaBPHpavEN1-64">
          <mxGeometry x="69.11276595744681" y="5.759433962264151" width="4.188652482269504" height="14.660377358490567" as="geometry" />
        </mxCell>
      </root>
    </mxGraphModel>
  </diagram>
</mxfile>
